PathFileType	4	(X/Y/Z)	D:\TRACE\spot_10-12-23\spot_arm_motion_1_5-platform.trc
DataRate	CameraRate	NumFrames	NumMarkers	Units	OrigDataRate	OrigDataStartFrame	OrigNumFrames
100.00	100.00	      44	5	mm	100.00	1	      7000
Frame#	Time	Left_Front			Right_Front			Left_Aft			Right_Aft			Post			
		X1	Y1	Z1	X2	Y2	Z2	X3	Y3	Z3	X4	Y4	Z4	X5	Y5	Z5	

1	0.000	-780.60858	6.15615	-641.45587	791.91559	10.89709	-634.79797	-697.53857	5.25903	496.47446	719.42340	9.73843	582.44977	2.30502	744.05981	-959.29749	
2	0.010	-780.63184	6.18824	-641.46283	791.87708	10.86911	-634.83276	-697.58386	5.26354	496.47009	719.46521	9.70020	582.46570	2.35057	744.04199	-959.37640	
3	0.020	-780.61975	6.18109	-641.42712	791.68292	10.83243	-634.94995	-697.58179	5.27873	496.42654	719.47894	9.70255	582.46179	2.35224	744.04993	-959.40320	
4	0.030	-780.60431	6.12736	-641.46106	791.87689	10.79605	-634.83063	-697.55701	5.27734	496.44119	719.47858	9.69620	582.46063	2.34503	744.04492	-959.44611	
5	0.040	-780.60046	6.09889	-641.43341	791.75702	10.85381	-634.92419	-697.58276	5.26290	496.42953	719.49365	9.70931	582.45807	2.34327	744.01001	-959.47797	
6	0.050	-780.60773	6.12845	-641.44391	791.92328	10.89518	-634.76953	-697.57593	5.26266	496.46130	719.47516	9.68367	582.44409	2.38606	744.03503	-959.50983	
7	0.060	-780.59644	6.15554	-641.44391	791.79724	10.89932	-634.90216	-697.56982	5.25271	496.47177	719.46246	9.68948	582.48480	2.28792	744.02234	-959.54279	
8	0.070	-780.63092	6.21981	-641.44568	791.76385	10.87790	-634.93109	-697.58087	5.22128	496.47739	719.45349	9.68623	582.46350	2.27988	744.07581	-959.50330	
9	0.080	-780.58478	6.16091	-641.46570	791.80798	10.87035	-634.90955	-697.55896	5.22715	496.47516	719.45111	9.70589	582.46204	2.35318	744.06067	-959.51740	
10	0.090	-780.58984	6.15947	-641.46997	791.75214	10.84523	-634.93451	-697.60089	5.24826	496.46057	719.47534	9.68297	582.46771	2.34624	744.02435	-959.53308	
11	0.100	-780.59912	6.15507	-641.45819	791.76031	10.87479	-634.94794	-697.60217	5.27599	496.45953	719.43579	9.69224	582.45532	2.28745	744.02710	-959.44110	
12	0.110	-780.61255	6.17174	-641.46338	791.73608	10.85193	-634.97729	-697.56226	5.23822	496.43015	719.49347	9.67906	582.46588	2.36876	744.01880	-959.41742	
13	0.120	-780.63354	6.17310	-641.44788	791.75665	10.89807	-634.91797	-697.57556	5.29114	496.47217	719.47095	9.68561	582.48462	2.33798	744.06671	-959.39978	
14	0.130	-780.63580	6.16317	-641.43994	791.79407	10.89254	-634.91150	-697.62427	5.29455	496.41974	719.47333	9.67761	582.45807	2.35908	744.04199	-959.29688	
15	0.140	-780.54041	6.12557	-641.46429	791.95984	10.87950	-634.78943	-697.58398	5.26658	496.44519	719.49780	9.68867	582.47980	2.37113	744.06140	-959.30750	
16	0.150	-780.54993	6.12355	-641.46979	791.95306	10.85739	-634.75159	-697.59430	5.30622	496.45627	719.49609	9.66521	582.48163	2.41511	744.04535	-959.40857	
17	0.160	-780.54938	6.14337	-641.46246	791.88245	10.85386	-634.80670	-697.59509	5.26110	496.46890	719.47052	9.69177	582.47321	2.38762	744.07880	-959.37939	
18	0.170	-780.54962	6.17341	-641.47681	791.73285	10.89130	-634.94061	-697.57715	5.27407	496.43140	719.46967	9.67946	582.45923	2.39372	744.03851	-959.46271	
19	0.180	-780.60583	6.16270	-641.44458	791.76007	10.90033	-634.93939	-697.57721	5.25297	496.43167	719.47955	9.66740	582.45551	2.34948	744.06689	-959.45972	
20	0.190	-780.64130	6.19056	-641.46259	791.96167	10.84405	-634.78113	-697.55292	5.27642	496.40048	719.45380	9.68616	582.47662	2.38648	744.06421	-959.44269	
21	0.200	-780.55048	6.14948	-641.44171	791.75311	10.96124	-634.95203	-697.56812	5.25348	496.46497	719.50385	9.74398	582.49780	2.32976	744.03357	-959.39600	
22	0.210	-780.54572	6.11669	-641.45496	791.90216	10.82320	-634.78064	-697.56433	5.25117	496.48865	719.46973	9.68941	582.47510	2.35350	744.02612	-959.47809	
23	0.220	-780.58643	6.11954	-641.46893	791.72699	10.89123	-634.93884	-697.56689	5.21124	496.46823	719.48590	9.68979	582.46051	2.36058	744.00806	-959.48297	
24	0.230	-780.58563	6.12737	-641.48303	791.89294	10.81869	-634.81586	-697.58618	5.24984	496.44482	719.50171	9.69666	582.48010	2.32306	744.01636	-959.50952	
25	0.240	-780.58325	6.14290	-641.49817	791.73920	10.90121	-634.95422	-697.57050	5.27157	496.47870	719.49054	9.69185	582.45184	2.34056	744.01929	-959.49274	
26	0.250	-780.54218	6.13905	-641.50330	791.74396	10.89953	-634.93909	-697.56360	5.27870	496.45160	719.43811	9.67665	582.45221	2.31416	744.07385	-959.45874	
27	0.260	-780.58539	6.15363	-641.48926	791.83807	10.81515	-634.86011	-697.53735	5.23967	496.46597	719.49622	9.66946	582.45209	2.38687	744.01843	-959.43903	
28	0.270	-780.59528	6.18225	-641.44641	791.73273	10.91930	-634.92047	-697.59851	5.23484	496.46802	719.50360	9.72232	582.47424	2.30614	744.06116	-959.36853	
29	0.280	-780.58783	6.13101	-641.45093	791.69458	10.89746	-634.94904	-697.55402	5.23750	496.45306	719.49805	9.67323	582.44531	2.30907	744.06915	-959.41620	
30	0.290	-780.60547	6.15766	-641.43597	791.92737	10.89638	-634.78308	-697.58148	5.27457	496.45862	719.44159	9.67419	582.46417	2.31225	744.06305	-959.37927	
31	0.300	-780.57813	6.14200	-641.47247	791.87006	10.85989	-634.82819	-697.57446	5.30085	496.44330	719.45984	9.68926	582.46155	2.40300	744.05786	-959.36646	
32	0.310	-780.62805	6.20065	-641.44696	791.75641	10.84348	-634.91809	-697.61853	5.26886	496.44235	719.42902	9.65234	582.46710	2.36482	744.03491	-959.39069	
33	0.320	-780.63574	6.17538	-641.42480	791.95166	10.83367	-634.77429	-697.57446	5.27958	496.44382	719.47980	9.65887	582.45740	2.37659	744.06805	-959.39948	
34	0.330	-780.62872	6.14883	-641.44720	791.85370	10.86792	-634.83514	-697.55444	5.24607	496.44028	719.45953	9.67583	582.45605	2.34596	744.06738	-959.33215	
35	0.340	-780.62183	6.14154	-641.43536	791.75812	10.90666	-634.92462	-697.58063	5.24652	496.45410	719.46930	9.64662	582.46716	2.38890	744.06232	-959.38733	
36	0.350	-780.60718	6.14877	-641.43298	791.85480	10.83908	-634.81921	-697.60773	5.25130	496.45923	719.44653	9.64202	582.45380	2.35731	744.13062	-959.52539	
37	0.360	-780.59637	6.16371	-641.48071	791.91016	10.84542	-634.82416	-697.56226	5.23501	496.47833	719.46130	9.65742	582.45984	2.42699	744.07434	-959.50098	
38	0.370	-780.59204	6.10662	-641.39966	791.89209	10.82926	-634.83356	-697.55444	5.20063	496.49637	719.45386	9.67582	582.47211	2.36632	744.12067	-959.51764	
39	0.380	-780.61853	6.15541	-641.42798	791.92792	10.87949	-634.80640	-697.59790	5.26054	496.49146	719.48761	9.67300	582.45355	2.43325	744.09674	-959.46570	
40	0.390	-780.57849	6.09959	-641.44025	791.75366	10.87963	-634.93530	-697.58777	5.25575	496.43683	719.46912	9.67617	582.45197	2.43259	744.08569	-959.46924	
41	0.400	-780.56995	6.08086	-641.44305	791.85492	10.88667	-634.90521	-697.55786	5.27924	496.41614	719.46375	9.68518	582.45422	2.39522	744.01563	-959.35718	
42	0.410	-780.62073	6.16735	-641.45807	791.76825	10.89185	-634.93231	-697.60699	5.27955	496.46829	719.46643	9.67776	582.44989	2.45621	744.03748	-959.38989	
43	0.420	-780.59613	6.17802	-641.48798	791.90765	10.83447	-634.81006	-697.62476	5.24709	496.45413	719.44806	9.67435	582.46375	2.67310	744.00812	-959.40332	
44	0.430	-780.64111	6.18169	-641.44165	791.93109	10.85165	-634.82379	-697.59662	5.26243	496.45871	719.47601	9.67282	582.47113	2.80269	744.09515	-959.35315	
